<svg xmlns="http://www.w3.org/2000/svg" width="24" height="16" fill="none" viewBox="0 0 24 16"><path fill="#009DBE" d="M0 0h24v16H0z"/><path fill="#fff" d="M18.468 9.474V5.728h2.524v.653H19.26v.892h1.603v.654H19.26v.894H21v.653zm-3.381 0V5.728h1.479q.424 0 .724.151.301.15.46.427.158.274.159.645 0 .374-.162.643a1.05 1.05 0 0 1-.466.41 1.7 1.7 0 0 1-.735.142h-.99V7.51h.861a1 1 0 0 0 .377-.062.45.45 0 0 0 .223-.186.6.6 0 0 0 .076-.31.6.6 0 0 0-.076-.314.46.46 0 0 0-.224-.194.9.9 0 0 0-.38-.068h-.533v3.1zm2.024-1.705.931 1.705h-.875l-.91-1.705zm-5.232 1.705h-.85l1.294-3.746h1.02l1.293 3.746h-.85l-.938-2.89h-.03zm-.054-1.472h2.006v.618h-2.006zM8.026 9.474h-.85L8.47 5.728h1.021l1.292 3.746h-.85l-.938-2.89h-.03zm-.053-1.472h2.005v.618H7.973zM2.665 5.728h.977l1.032 2.517h.044L5.75 5.728h.977v3.746h-.769V7.036h-.03l-.97 2.42h-.524l-.97-2.43h-.03v2.448h-.769z"/></svg>