<svg xmlns="http://www.w3.org/2000/svg" width="72" height="73" fill="none" viewBox="0 0 72 73"><path stroke="#27272A" stroke-opacity="0.2" d="M.5 1h71v71H.5z"/><path fill="#27272A" d="M42.243 18.126c-.328.475-.328.475-.578.475h-12.61l-.225.414 6.348 10.3c.392.637.392.637.28.88l-1.68 2.976c-.433.784-.439.787-.76.253-1.748-2.91-6.02-9.77-6.02-9.77-.655-1.062-.655-1.062-.43-1.59l3.974-7.066c.261-.386.261-.386 1.635-.386h11.36c.752 0 .752 0 .235.796z"/><path fill="#27272A" d="M26.18 26.077c.252 0 .252 0 .502.329l6.504 10.838.471-.012s3.813-6.702 5.76-10.64c.375-.759.375-.759.625-.759h3.372c.999 0 .999 0 .646.573l-5.463 10.09c-.678 1.307-.678 1.307-1.177 1.307h-8.116c-.375 0-.375 0-1.139-1.264l-5.68-9.824c-.299-.633-.299-.633.575-.633z"/><path fill="#27272A" d="M41.29 36.805c-.124-.249-.249-.25 0-.748l5.993-11.28-.236-.406-12.111.028c-.75.002-.75.002-.898-.22l-1.987-3.084c-.5-.748-.5-.748 0-.748h11.987c1.249 0 1.249 0 1.586.505l3.961 7.073c.194.425.194.425-.524 1.595l-4.898 10.278c-.25.498-.375.498-.874-.125zM18.75 47.346c0 .845.715 1.524 1.597 1.524h.449c.233 0 .432.182.432.414v2.766h-1.031v-2.319H18.75v2.27c-.017.728.615 1.325 1.364 1.325h1.197c.749 0 1.364-.597 1.364-1.325V48.87c0-.762-.648-1.391-1.447-1.391h-.582a.423.423 0 0 1-.449-.431v-2.965h1.031v2.303h1.447v-2.253c0-.729-.615-1.325-1.38-1.325h-1.181c-.749 0-1.364.596-1.364 1.325zm7.23-4.555h-1.431c-.732 0-1.314.597-1.314 1.325v7.885c0 .712.576 1.325 1.309 1.325h1.448c.732 0 1.301-.613 1.301-1.325v-7.885c0-.728-.582-1.325-1.314-1.325m-1.265 1.276h1.081v7.967h-1.081zm5.777-1.259v9.242H29.41v-9.242h-1.48V52c0 .728.582 1.325 1.314 1.325h1.43c.732 0 1.314-.597 1.314-1.325v-9.193zm5.659 1.259v-1.26h-3.876v1.26h.998c.1 0 .183.082.183.182v9.077h1.464v-9.077c0-.1.067-.182.167-.182zm2.82-1.259v4.621h-1.064v-4.621h-1.48v10.518h1.48v-4.622h1.065v4.622h1.48V42.808zm5.943 1.308c0-.728-.6-1.325-1.331-1.325h-2.445v10.535h2.446A1.33 1.33 0 0 0 44.913 52zm-2.396-.05h.998v7.968h-.998zm6.398.001V42.79h-3.36v10.535h3.36v-1.292h-1.98v-3.346h1.73v-1.276h-1.73v-3.345zm3.037-1.259-.432 4.008a76 76 0 0 0-.3 3.76h-.066a76 76 0 0 0-.3-3.76l-.432-4.008h-1.43l1.163 10.518h1.91l1.185-10.518zM21.497 54.675v2.902h-.386V55.31l-.96 1.58h-.05l-.961-1.576v2.264h-.39v-2.902h.44l.935 1.534.931-1.534zm2.327.829h.365v2.073h-.365v-.356q-.273.41-.793.41-.44 0-.751-.315a1.07 1.07 0 0 1-.31-.775q0-.456.31-.771.31-.32.75-.32.521 0 .794.41zm-.747 1.779a.727.727 0 0 0 .747-.742.7.7 0 0 0-.214-.527.72.72 0 0 0-.533-.216.72.72 0 0 0-.529.216.7.7 0 0 0-.213.527.724.724 0 0 0 .742.742m2.029-1.431q.18-.385.655-.385v.377a.67.67 0 0 0-.462.141q-.193.153-.193.493v1.1h-.365v-2.074h.365zm2.786 1.725h-.453l-.956-.982v.982h-.365v-2.902h.365v1.745l.906-.916h.47l-1.003 1.004zm.403-.87a.7.7 0 0 0 .256.43.8.8 0 0 0 .503.154q.415 0 .604-.302l.31.174q-.306.468-.922.468-.5 0-.814-.307a1.06 1.06 0 0 1-.31-.783q0-.469.306-.78.306-.31.792-.31a.96.96 0 0 1 .751.323q.294.319.294.77 0 .08-.013.163zm.725-.917a.72.72 0 0 0-.486.166.7.7 0 0 0-.24.435h1.402a.7.7 0 0 0-.235-.447.68.68 0 0 0-.44-.154m2.543.062h-.558v1.124q0 .154.059.22.063.062.188.066a7 7 0 0 0 .31-.008v.323q-.477.063-.7-.074-.222-.141-.222-.527v-1.124h-.415v-.348h.415v-.473l.365-.107v.58h.558zm.616-.725a.24.24 0 0 1-.176-.07.23.23 0 0 1-.071-.17.23.23 0 0 1 .071-.17.23.23 0 0 1 .177-.075.23.23 0 0 1 .172.074.23.23 0 0 1 .07.17.23.23 0 0 1-.07.17.24.24 0 0 1-.172.07m-.184 2.45v-2.073h.365v2.073zm1.965-2.126q.369 0 .591.232.223.228.223.622v1.273h-.365v-1.252q0-.253-.139-.39a.5.5 0 0 0-.381-.14.6.6 0 0 0-.44.17q-.17.165-.169.513v1.1h-.364v-2.074h.364v.299q.223-.353.68-.353m3.064.054h.36v1.986q0 .46-.314.713-.315.258-.755.257-.353 0-.608-.132a.86.86 0 0 1-.386-.373l.319-.179q.171.348.683.348.329 0 .512-.17a.6.6 0 0 0 .189-.464v-.294a.89.89 0 0 1-.789.414q-.449 0-.759-.315a1.05 1.05 0 0 1-.31-.767q0-.451.31-.763.31-.315.76-.315.515 0 .788.41zm-1.28 1.55q.214.213.533.212a.727.727 0 0 0 .747-.738.727.727 0 0 0-.747-.734.727.727 0 0 0-.746.734q0 .315.214.527m5.213.522-.24-.65H39.4l-.24.65h-.415l1.095-2.902h.44l1.095 2.902zm-1.427-1.011h1.053l-.528-1.43zm3.842-1.062h.36v1.986q0 .46-.314.713-.315.258-.755.257-.352 0-.608-.132a.86.86 0 0 1-.386-.373l.319-.179q.173.348.684.348.327 0 .511-.17a.6.6 0 0 0 .19-.464v-.294a.89.89 0 0 1-.79.414q-.449 0-.759-.315a1.05 1.05 0 0 1-.31-.767q0-.451.31-.763.31-.315.76-.315.515 0 .788.41zm-1.28 1.55q.215.213.534.212a.727.727 0 0 0 .746-.738.727.727 0 0 0-.747-.734.727.727 0 0 0-.746.734q0 .315.214.527m2.449-.348a.7.7 0 0 0 .255.43.82.82 0 0 0 .504.154q.415 0 .604-.302l.31.174q-.306.468-.923.468-.499 0-.813-.307a1.06 1.06 0 0 1-.31-.783q0-.469.306-.78.306-.31.792-.31.462 0 .751.323.294.319.294.77 0 .08-.013.163zm.725-.917a.72.72 0 0 0-.486.166.7.7 0 0 0-.24.435h1.402a.7.7 0 0 0-.235-.447.68.68 0 0 0-.44-.154m2.508-.34q.369 0 .591.232.223.228.223.622v1.273h-.366v-1.252q0-.253-.138-.39a.5.5 0 0 0-.382-.14.6.6 0 0 0-.44.17q-.168.165-.168.513v1.1h-.365v-2.074h.365v.299q.222-.353.68-.353m2.309 2.181q-.475 0-.789-.31a1.06 1.06 0 0 1-.315-.78q0-.465.315-.776.315-.315.789-.315.31 0 .557.15a.9.9 0 0 1 .37.393l-.307.174a.6.6 0 0 0-.247-.265.7.7 0 0 0-.373-.1.72.72 0 0 0-.739.739q0 .31.21.522a.72.72 0 0 0 .529.212.75.75 0 0 0 .377-.096.67.67 0 0 0 .256-.265l.31.178q-.135.244-.386.394a1.1 1.1 0 0 1-.557.145m2.772-2.127h.39l-.856 2.202q-.135.352-.377.535a.8.8 0 0 1-.554.166v-.336q.386.029.566-.423l.038-.08-.914-2.064h.39l.713 1.625z"/></svg>