<svg xmlns="http://www.w3.org/2000/svg" width="97" height="20" fill="none" viewBox="0 0 97 20"><g clip-path="url(#a)"><mask id="b" width="97" height="20" x="0" y="0" maskUnits="userSpaceOnUse" style="mask-type:luminance"><path fill="#fff" d="M96.19 0H0v20h96.19z"/></mask><g fill="#fff" mask="url(#b)"><path d="M34.11 10.002c-1.177 1.35-4.615 4.673-6.187 5.481-.604.312-1.3.58-1.94.363-2.76-.942-.83-4.393.207-6.09.825-1.352 1.964-2.44 2.92-3.69.918-1.198 2.103-3.697.314-4.732-.606-.351-1.377-.252-1.998.071-.618.324-1.117.846-1.606 1.356a226 226 0 0 1-11.147 10.84c-.263.238-1.17 1.346-1.582 1.102-.12-.072-.158-.24-.124-.38.1-.406.552-.796.8-1.11q.489-.617.96-1.247a58 58 0 0 0 5.222-8.414c.391-.772.773-1.685.442-2.488-.318-.772-1.224-1.137-2.027-1.047s-1.526.543-2.19 1.019c-4.139 2.961-7.225 7.23-11.043 10.62-.299.266-.698.547-1.11.55-.756.005-.773-.88-.615-1.434.89-3.093 4.086-4.819 5.646-7.611.121-.22.236-.45.253-.705.041-.632-.55-1.143-1.151-1.265-1.076-.22-2.166.452-2.833 1.353-.581.788-.888 1.714-1.236 2.626-.92 2.416-2.112 4.705-3.042 7.117-.57 1.54-.988 3.173-1.027 4.832-.014.651-.085 1.713.246 2.29.314.55 1.034.722 1.582.49.781-.327 1.297-1.214 1.784-1.884.566-.776 1.121-1.562 1.679-2.347 1.112-1.573 2.219-3.15 3.382-4.682 2.127-2.797 4.48-5.458 7.325-7.486.129-.092.29-.187.433-.12.221.102.16.44.063.668-2.017 4.68-5.156 8.805-6.857 13.618-.217.614-.395 1.358-.013 1.878.363.496 1.1.543 1.643.275.543-.266.937-.77 1.317-1.25A104.6 104.6 0 0 1 25.565 4.865c.26-.228.669-.455.905-.198-1.888 4.27-5.317 7.872-6.132 12.49-.141.805-.163 1.738.39 2.322.347.367.812.492 1.306.474.552-.023 1.143-.227 1.647-.474 3.035-1.49 8.018-5.608 10.427-8.033V9.998zm19.01 1.136V1.375h-8.386l-10.625 10.19v3.7h14.202v4.736h4.806v-4.735h1.053l3.85-4.13h-4.903zm-12.022 0 7.16-6.841v6.841zm24.88-.683 9.047-9.12H67.72l-9.502 9.801h7.027l-8.268 8.865h7.11l9.106-9.625zM94.08 8.888q-2.106-1.449-6.604-1.448h-4.743l5.631-6.061h-6.013l-8.154 8.253c-1.005 1.016-1.601 2.349-1.611 3.741v.162q0 6.469 8.87 6.47h6.018q8.71-.001 8.71-6.47v-.125q.001-3.072-2.104-4.52zm-3.34 4.57q-.001 2.2-3.21 2.2h-6.254q-3.238.001-3.237-2.2v-.124q0-2.098 3.237-2.097h6.254q3.21 0 3.21 2.097zm2.228-8.713c1.213 0 2.195-.933 2.195-2.083S94.181.578 92.968.578s-2.195.933-2.195 2.084c0 1.15.983 2.083 2.195 2.083"/></g></g><defs><clipPath id="a"><path fill="#fff" d="M0 0h96.19v20H0z"/></clipPath></defs></svg>