<svg xmlns="http://www.w3.org/2000/svg" width="146" height="40" fill="none" viewBox="0 0 146 40"><g fill="#91DDE8"><path d="M0 0h9.709l6.122 24.726L22.063 0h9.717v39.997h-7.403V15.94l-7.168 24.058H14.12l-6.718-24.12v24.12H0zm44.605 0h7.281l11.495 39.997h-7.403l-2.89-10.12-9.269-.06-2.648 10.18h-7.404L44.603 0zm7.344 23.816-3.732-12.787-3.49 12.787zM76.385 0h7.282l11.495 39.997h-7.404l-2.89-10.12-9.268-.06-2.649 10.18h-7.403L76.382 0zm7.344 23.816-3.731-12.787-3.491 12.787zM97.152 0h12.099c5.898 0 11.435 1.819 11.435 10.606v2.726c0 4.06-1.746 7.03-4.633 8.362 2.529.426 4.333 1.576 4.273 6.061-.056 3.19-1.795 6.347 3.976 10.22.374.252.765 1.777 1.205 2.022h-10.778c-1.265-4.06-1.506-7.271-1.443-10.363 0-3.152-1.324-4.848-4.633-4.848h-4.092v15.211h-7.404V0zm11.135 18.665c3.672 0 5.055-1.453 5.055-5.515v-1.76c0-3.697-1.142-5.273-4.936-5.273h-3.854v12.545h3.732z"/><path d="M124.299 0h20.764v6.12h-13.36v11.152h11.075v5.516h-11.075v11.091h13.423V40h-20.827z"/></g></svg>